<svg width="50" height="50" viewBox="0 0 50 50" fill="none" xmlns="http://www.w3.org/2000/svg">
<path fill-rule="evenodd" clip-rule="evenodd" d="M46.3226 18.0969C43.4484 13.8664 42.4054 10.2469 43.3093 7.62812C44.2929 4.77421 47.321 3.82577 47.3867 3.80468C47.9781 3.63124 48.3203 3.00156 48.1531 2.39452C48.1156 2.25149 48.0501 2.11735 47.9602 1.99995C47.8703 1.88255 47.7579 1.78424 47.6296 1.71077C47.5013 1.63731 47.3596 1.59015 47.2129 1.57207C47.0661 1.55399 46.9173 1.56534 46.775 1.60546C46.6062 1.65468 42.6046 2.85468 41.214 6.83671C40.0289 10.2312 41.132 14.4586 44.4898 19.4031C45.932 21.5242 46.4664 23.6523 46.0812 25.7305C45.9046 26.6797 45.5492 27.5484 45.1156 28.325C43.3226 13.3547 31.6429 4.91874 24.9999 4.91874C19.8874 4.91874 6.73355 11.9242 4.87026 28.3055C4.44448 27.5398 4.09605 26.6828 3.92026 25.7445C3.53042 23.6625 4.0648 21.5289 5.50933 19.4031C8.86792 14.4586 9.96948 10.2305 8.78511 6.83671C7.39448 2.85468 3.3937 1.65546 3.22495 1.60624C3.08264 1.56612 2.93377 1.55477 2.78702 1.57285C2.64027 1.59093 2.4986 1.63809 2.37029 1.71155C2.24198 1.78502 2.1296 1.88333 2.03972 2.00073C1.94984 2.11813 1.88427 2.25227 1.84683 2.39531C1.67886 3.00312 2.02417 3.63437 2.61714 3.80624C2.64761 3.81484 5.67573 4.72187 6.68355 7.60702C7.59917 10.2273 6.56011 13.8547 3.6773 18.0969C1.87573 20.7476 1.22026 23.4664 1.72886 26.1766C2.17495 28.557 3.44683 30.4875 4.65308 31.857C4.65073 32.0969 4.63901 32.3289 4.64136 32.5719C4.6687 35.6562 4.82261 43.4797 6.37651 44.7703C7.93276 46.0641 11.7882 42.7469 13.607 43.6211C15.4875 44.525 16.1382 47.9289 18.1906 48.382C20.2695 48.8445 22.8609 46.1523 24.9984 46.1531C27.1343 46.1523 29.7296 48.8453 31.8085 48.3828C33.8578 47.9281 34.5117 44.5242 36.3921 43.6203C38.2109 42.7476 42.0632 46.0633 43.621 44.7695C45.1742 43.4789 45.3289 35.6555 45.3546 32.5711C45.357 32.3305 45.3468 32.0969 45.3437 31.8594C46.55 30.4883 47.8234 28.557 48.2695 26.1758C48.7789 23.4664 48.1234 20.7484 46.3226 18.0969ZM24.9999 12.0539C31.2773 12.0539 33.4953 13.6969 33.021 14.5555C32.0242 16.3586 31.2773 14.9125 24.9999 14.9125C18.7226 14.9125 17.9742 16.3586 16.9781 14.5555C16.5039 13.6969 18.7226 12.0539 24.9999 12.0539ZM13.4335 40.057C12.9046 41.1726 10.8617 41.275 8.87339 40.2844C6.88354 39.2922 5.70073 37.5867 6.2312 36.4695C6.76089 35.3539 8.80308 35.2516 10.7914 36.2437C12.7796 37.2344 13.9625 38.9422 13.4335 40.057ZM15.9039 34.7625C12.2593 33.0094 8.04604 34.6367 10.6304 28.3945C11.4671 26.3727 14.946 28.125 18.1218 30.2961C17.107 30.6984 16.3749 31.7422 16.3749 32.975C16.3749 34.557 17.5648 35.8375 19.0296 35.8375C20.4945 35.8375 21.6828 34.557 21.6828 32.975C21.6828 32.9687 21.6796 32.9609 21.6796 32.9539C20.5424 32.0367 19.3718 31.1616 18.1703 30.3305C21.1351 32.3641 23.821 34.7469 23.821 34.7469C22.1976 38.6648 19.5468 36.5172 15.9039 34.7625ZM16.9789 20.0344C16.5039 19.175 18.7226 17.5336 25.0007 17.5336C31.2781 17.5336 33.496 19.175 33.0218 20.0344C32.0242 21.8359 31.2773 20.3914 24.9999 20.3914C18.7226 20.3914 17.9742 21.8359 16.9789 20.0344ZM27.8414 34.9742C27.8414 34.9742 28.3921 33.9289 29.2476 32.4742C29.2176 32.6395 29.2014 32.807 29.1992 32.975C29.1992 34.557 30.3875 35.8375 31.8523 35.8375C33.3171 35.8375 34.5054 34.557 34.5054 32.975C34.5054 31.3961 33.3171 30.1156 31.8523 30.1156C31.3125 30.1156 30.8093 30.2914 30.3937 30.5891C30.1953 30.9039 30.0054 31.2109 29.8242 31.5101C32.2203 27.5664 36.1664 21.9203 38.0523 23.9562C40.8679 26.9914 40.8749 31.932 38.0539 34.975C35.2335 38.0172 30.6539 38.0094 27.8414 34.9742ZM41.1257 40.2844C39.1367 41.275 37.0945 41.1726 36.564 40.057C36.0367 38.9414 37.2179 37.2344 39.2078 36.2437C41.1968 35.2516 43.2382 35.3539 43.7679 36.4695C44.2976 37.5867 43.1156 39.293 41.1257 40.2844Z" fill="#A8E1FE"/>
</svg>
