<svg width="23" height="30" viewBox="0 0 23 30" fill="none" xmlns="http://www.w3.org/2000/svg">
<g clip-path="url(#clip0_191_429)">
<path d="M6.40151 10.1514C7.86577 8.68713 7.86577 6.31233 6.40151 4.84807C4.93726 3.38381 2.56245 3.38381 1.09819 4.84807C-0.366064 6.31233 -0.366064 8.68713 1.09819 10.1514C2.56304 11.6162 4.93726 11.6162 6.40151 10.1514ZM21.4015 19.8481C19.9373 18.3838 17.5625 18.3838 16.0982 19.8481C14.6339 21.3123 14.6339 23.6871 16.0982 25.1514C17.5625 26.6157 19.9373 26.6157 21.4015 25.1514C22.8664 23.6871 22.8664 21.3129 21.4015 19.8481ZM21.2878 6.28772L19.9625 4.96233C19.23 4.22991 18.0429 4.22991 17.3111 4.96233L1.21245 21.061C0.480029 21.7934 0.480029 22.9805 1.21245 23.7123L2.53784 25.0377C3.27026 25.7701 4.45737 25.7701 5.18921 25.0377L21.2878 8.93909C22.0203 8.20725 22.0203 7.02014 21.2878 6.28772Z" fill="white"/>
</g>
<defs>
<clipPath id="clip0_191_429">
<rect width="22.5" height="30" fill="white"/>
</clipPath>
</defs>
</svg>
