<svg width="24" height="24" viewBox="0 0 24 24" fill="none" xmlns="http://www.w3.org/2000/svg">
<path d="M11.25 2.07302C10.644 2.18602 9.932 2.43002 8.838 2.80502L8.265 3.00002C5.258 4.03002 3.755 4.54402 3.378 5.08202C3.008 5.60802 3 7.15002 3 10.21L11.25 7.46002V2.07302ZM11.25 9.04002L3 11.79V11.991C3 17.629 7.239 20.365 9.899 21.527C10.409 21.75 10.739 21.894 11.25 21.959V9.04002ZM12.75 21.96V9.04002L21 11.79V11.991C21 17.629 16.761 20.365 14.101 21.527C13.591 21.75 13.261 21.895 12.75 21.96ZM12.75 7.46002V2.07202C13.356 2.18502 14.068 2.42902 15.162 2.80402L15.735 3.00002C18.742 4.02902 20.245 4.54302 20.622 5.08102C20.992 5.60702 21 7.14902 21 10.208L12.75 7.46002Z" fill="black"/>
</svg>
