<svg width="30" height="30" viewBox="0 0 30 30" fill="none" xmlns="http://www.w3.org/2000/svg">
<path d="M15 1.875C8.2793 1.875 2.8125 7.13203 2.8125 13.5938C2.8125 17.5898 4.95352 21.3281 8.4375 23.4703V25.3125C8.4375 25.8098 8.63504 26.2867 8.98668 26.6383C9.33831 26.99 9.81522 27.1875 10.3125 27.1875H11.25C11.3743 27.1875 11.4935 27.1381 11.5815 27.0502C11.6694 26.9623 11.7188 26.8431 11.7188 26.7188V23.4691C11.7155 23.2272 11.804 22.993 11.9664 22.8136C12.1288 22.6343 12.3531 22.5231 12.5941 22.5023C12.7224 22.4938 12.851 22.5118 12.972 22.5551C13.093 22.5983 13.2038 22.666 13.2976 22.754C13.3913 22.8419 13.466 22.9481 13.5169 23.0661C13.5679 23.1841 13.594 23.3113 13.5938 23.4398V26.7211C13.5938 26.8454 13.6431 26.9646 13.731 27.0526C13.819 27.1405 13.9382 27.1898 14.0625 27.1898H15.9375C16.0618 27.1898 16.181 27.1405 16.269 27.0526C16.3569 26.9646 16.4062 26.8454 16.4062 26.7211V23.4691C16.403 23.2272 16.4915 22.993 16.6539 22.8136C16.8163 22.6343 17.0406 22.5231 17.2816 22.5023C17.4099 22.4938 17.5385 22.5118 17.6595 22.5551C17.7805 22.5983 17.8913 22.666 17.9851 22.754C18.0788 22.8419 18.1535 22.9481 18.2044 23.0661C18.2554 23.1841 18.2815 23.3113 18.2812 23.4398V26.7211C18.2812 26.8454 18.3306 26.9646 18.4185 27.0526C18.5065 27.1405 18.6257 27.1898 18.75 27.1898H19.6875C20.1848 27.1898 20.6617 26.9923 21.0133 26.6407C21.365 26.289 21.5625 25.8121 21.5625 25.3148V23.4703C25.0465 21.3281 27.1875 17.5898 27.1875 13.5938C27.1875 7.13203 21.7207 1.875 15 1.875ZM10.7812 17.8125C10.3177 17.8125 9.86456 17.675 9.47913 17.4175C9.0937 17.16 8.7933 16.7939 8.61591 16.3657C8.43851 15.9374 8.3921 15.4661 8.48253 15.0115C8.57297 14.5569 8.79619 14.1392 9.12397 13.8115C9.45175 13.4837 9.86936 13.2605 10.324 13.17C10.7786 13.0796 11.2499 13.126 11.6782 13.3034C12.1064 13.4808 12.4725 13.7812 12.73 14.1666C12.9875 14.5521 13.125 15.0052 13.125 15.4688C13.125 16.0904 12.8781 16.6865 12.4385 17.126C11.999 17.5656 11.4029 17.8125 10.7812 17.8125ZM19.2188 17.8125C18.7552 17.8125 18.3021 17.675 17.9166 17.4175C17.5312 17.16 17.2308 16.7939 17.0534 16.3657C16.876 15.9374 16.8296 15.4661 16.92 15.0115C17.0105 14.5569 17.2337 14.1392 17.5615 13.8115C17.8892 13.4837 18.3069 13.2605 18.7615 13.17C19.2162 13.0796 19.6874 13.126 20.1157 13.3034C20.5439 13.4808 20.91 13.7812 21.1675 14.1666C21.425 14.5521 21.5625 15.0052 21.5625 15.4688C21.5625 16.0904 21.3156 16.6865 20.876 17.126C20.4365 17.5656 19.8404 17.8125 19.2188 17.8125Z" fill="white"/>
</svg>
