<svg width="50" height="50" viewBox="0 0 50 50" fill="none" xmlns="http://www.w3.org/2000/svg">
<path d="M14.6833 27.9292L22.0479 35.2958L19.1041 38.2417L22.052 41.1896L19.1062 44.1354L13.9499 38.9792L8.05618 44.8729L5.11035 41.9271L11.0041 36.0313L5.84785 30.8771L8.79369 27.9313L11.7395 30.875L14.6833 27.9292ZM6.24993 6.25L13.6374 6.25625L38.2562 30.8771L41.2041 27.9313L44.152 30.8771L38.9958 36.0333L44.8874 41.9271L41.9416 44.8729L36.0478 38.9792L30.8937 44.1354L27.9458 41.1896L30.8916 38.2417L6.2541 13.6063L6.24993 6.25ZM36.3687 6.25L43.7499 6.25625L43.7541 13.5958L35.3103 22.0375L27.9437 14.6729L36.3687 6.25Z" fill="#A8E1FE"/>
</svg>
